<svg preserveAspectRatio="none" overflow="visible" style="display: block;" width="44" height="44" viewBox="0 0 44 44" fill="none" xmlns="http://www.w3.org/2000/svg">
<g id="hugeicons:connect">
<path id="Vector" d="M8.27383 35.7262C12.8792 40.1115 18.3627 38.357 20.5572 36.5805C21.6902 35.662 22.2017 35.068 22.6398 34.628C24.1743 33.2035 24.0772 31.7772 23.0798 30.6368C22.6783 30.1803 20.1172 27.72 17.6605 25.1973C16.3882 23.925 15.5118 23.0267 14.7602 22.3007C13.7573 21.2997 12.8792 20.152 11.5628 20.185C10.3565 20.185 9.48017 21.2483 8.382 22.3465C7.12067 23.6078 6.18933 25.1973 5.86117 26.6237C4.873 30.7908 6.40933 33.7517 8.27383 35.7262ZM8.27383 35.7262L3.66667 40.3315M35.7262 8.2775C31.119 3.8885 25.6538 5.67417 23.4612 7.4525C22.3245 8.37283 21.8148 8.96683 21.3748 9.40683C19.8403 10.8332 19.9375 12.2595 20.9367 13.3998C21.0797 13.5648 21.505 13.9865 22.1008 14.5805M35.7262 8.2775C37.5907 10.252 39.1472 13.2458 38.159 17.4167C37.829 18.843 36.8977 20.4325 35.6363 21.6957C34.54 22.792 33.6618 23.8572 32.4555 23.8572C31.1392 23.8902 30.4572 22.9368 29.4507 21.9358M35.7262 8.2775L40.3333 3.66667M22.1008 14.5805C23.166 15.6347 24.783 17.2242 26.356 18.8412C27.6283 20.1135 28.699 21.2098 29.4507 21.934L26.587 24.7298M22.1008 14.5805L19.272 17.4258" stroke="black" stroke-width="1.5" stroke-linecap="round"/>
</g>
</svg>
